<?xml version="1.0" standalone="no"?>
<!DOCTYPE svg PUBLIC "-//W3C//DTD SVG 20010904//EN"
 "http://www.w3.org/TR/2001/REC-SVG-20010904/DTD/svg10.dtd">
<svg version="1.0" xmlns="http://www.w3.org/2000/svg"
 width="1026.000000pt" height="1024.000000pt" viewBox="0 0 1026.000000 1024.000000"
 preserveAspectRatio="xMidYMid meet">

<g transform="translate(0.000000,1024.000000) scale(0.100000,-0.100000)"
fill="#000000" stroke="none">
<path d="M4845 9520 c-462 -32 -902 -130 -1325 -297 -1385 -544 -2406 -1754
-2705 -3205 -236 -1144 -13 -2329 621 -3301 644 -987 1666 -1682 2809 -1912
1635 -329 3293 272 4329 1569 798 998 1120 2282 891 3544 -218 1197 -934 2260
-1965 2919 -579 370 -1229 596 -1920 668 -189 19 -559 27 -735 15z m453 -3566
c320 -65 574 -308 658 -629 28 -107 26 -324 -4 -429 -113 -391 -476 -649 -876
-623 -281 19 -528 171 -678 419 -72 117 -107 238 -115 393 -12 237 65 445 230
622 110 117 289 217 446 248 92 18 247 18 339 -1z m-1578 -1153 c0 -11 15 -67
34 -125 170 -518 596 -885 1141 -983 118 -21 350 -21 470 0 212 38 411 119
587 239 111 75 271 233 351 344 31 45 79 124 107 175 46 89 130 313 130 352 0
16 61 17 1136 17 l1137 0 -7 -77 c-4 -43 -18 -143 -32 -223 -199 -1178 -962
-2196 -2039 -2720 -527 -256 -1037 -373 -1630 -373 -500 -1 -913 78 -1375 260
-750 296 -1386 835 -1810 1533 -277 456 -464 1010 -516 1533 l-6 67 1161 0
c1143 0 1161 0 1161 -19z"/>
</g>
</svg>
